<svg width="40" height="40" viewBox="0 0 40 40" fill="none" xmlns="http://www.w3.org/2000/svg">
    <rect width="40" height="40" rx="4" fill="url(#paint0_linear)" />
    <g clip-path="url(#clip0)">
        <path
            d="M32.1362 11.6C31.1067 11.6 30.2695 12.4372 30.2695 13.4667C30.2695 14.4961 31.1067 15.3333 32.1362 15.3333C33.1656 15.3333 34.0028 14.4962 34.0028 13.4667C34.0028 12.4372 33.1656 11.6 32.1362 11.6ZM32.1362 14.4C31.6215 14.4 31.2028 13.9815 31.2028 13.4667C31.2028 12.952 31.6214 12.5333 32.1362 12.5333C32.651 12.5333 33.0695 12.9519 33.0695 13.4667C33.0695 13.9815 32.6509 14.4 32.1362 14.4Z"
            fill="white" />
        <path
            d="M7.86665 27C6.83721 27 6 27.8372 6 28.8666C6 29.8961 6.83721 30.7333 7.86665 30.7333C8.89614 30.7333 9.7333 29.8961 9.7333 28.8666C9.7333 27.8372 8.89614 27 7.86665 27ZM7.86665 29.8C7.35193 29.8 6.9333 29.3814 6.9333 28.8666C6.9333 28.3519 7.35187 27.9333 7.86665 27.9333C8.38137 27.9333 8.8 28.3519 8.8 28.8666C8.8 29.3814 8.38142 29.8 7.86665 29.8Z"
            fill="white" />
        <path
            d="M31.2266 12.1898L27.2007 10.2462C26.9683 10.1337 26.6897 10.2317 26.5777 10.4637C26.4657 10.6956 26.5632 10.9747 26.7952 11.0867L30.8211 13.0303C30.8865 13.062 30.9555 13.077 31.0236 13.077C31.1972 13.077 31.3638 12.9799 31.4441 12.8128C31.5561 12.5809 31.4586 12.3018 31.2266 12.1898Z"
            fill="white" />
        <path
            d="M26.9995 30.2667C25.97 30.2667 25.1328 31.1039 25.1328 32.1333C25.1328 33.1628 25.97 34 26.9995 34C28.029 34 28.8661 33.1628 28.8661 32.1334C28.8661 31.1039 28.029 30.2667 26.9995 30.2667ZM26.9995 33.0667C26.4847 33.0667 26.0661 32.6481 26.0661 32.1333C26.0661 31.6185 26.4847 31.2 26.9995 31.2C27.5142 31.2 27.9328 31.6186 27.9328 32.1334C27.9328 32.6481 27.5142 33.0667 26.9995 33.0667Z"
            fill="white" />
        <path
            d="M26.0977 30.8566L22.0718 28.913C21.8394 28.8005 21.5608 28.898 21.4488 29.1304C21.3368 29.3624 21.4343 29.6414 21.6663 29.7534L25.6922 31.6971C25.7576 31.7288 25.8266 31.7437 25.8947 31.7437C26.0683 31.7437 26.2349 31.6467 26.3152 31.4796C26.4272 31.2476 26.3297 30.9686 26.0977 30.8566Z"
            fill="white" />
        <path
            d="M19.9995 18.6C18.97 18.6 18.1328 19.4372 18.1328 20.4667C18.1328 21.4962 18.97 22.3333 19.9995 22.3333C21.029 22.3333 21.8661 21.4961 21.8661 20.4667C21.8661 19.4372 21.029 18.6 19.9995 18.6ZM19.9995 21.4C19.4847 21.4 19.0661 20.9815 19.0661 20.4667C19.0661 19.952 19.4847 19.5333 19.9995 19.5333C20.5142 19.5333 20.9328 19.9519 20.9328 20.4667C20.9328 20.9815 20.5142 21.4 19.9995 21.4Z"
            fill="white" />
        <path
            d="M19.1823 19.2422L16.0897 16.8318C15.8862 16.6745 15.5932 16.7095 15.4345 16.913C15.2763 17.1165 15.3122 17.4095 15.5157 17.5682L18.6083 19.9786C18.6937 20.0449 18.7945 20.0771 18.8949 20.0771C19.0339 20.0771 19.1711 20.0155 19.2635 19.8974C19.4217 19.6939 19.3858 19.4008 19.1823 19.2422Z"
            fill="white" />
        <path
            d="M28.399 18.1333C25.5686 18.1333 23.2656 20.4363 23.2656 23.2667C23.2656 26.097 25.5686 28.4 28.399 28.4C31.2293 28.4 33.5323 26.097 33.5323 23.2667C33.5323 20.4363 31.2293 18.1333 28.399 18.1333ZM28.399 27.4666C26.0829 27.4666 24.199 25.5827 24.199 23.2666C24.199 20.9505 26.0829 19.0666 28.399 19.0666C30.715 19.0666 32.599 20.9505 32.599 23.2666C32.599 25.5827 30.715 27.4666 28.399 27.4666Z"
            fill="white" />
        <path
            d="M28.3979 20C27.3684 20 26.5312 20.8372 26.5312 21.8666C26.5312 22.8961 27.3685 23.7333 28.3979 23.7333C29.4274 23.7333 30.2645 22.8961 30.2645 21.8666C30.2645 20.8372 29.4274 20 28.3979 20ZM28.3979 22.8C27.8832 22.8 27.4645 22.3814 27.4645 21.8666C27.4645 21.3519 27.8831 20.9333 28.3979 20.9333C28.9126 20.9333 29.3312 21.3519 29.3312 21.8666C29.3312 22.3814 28.9126 22.8 28.3979 22.8Z"
            fill="white" />
        <path
            d="M29.7554 24.6667H27.0478C26.2503 24.6667 25.6016 25.2981 25.6016 26.0737V27.3038C25.6016 27.4704 25.6902 27.6244 25.8344 27.708C26.6166 28.1606 27.5041 28.4 28.4016 28.4C29.299 28.4 30.1866 28.1606 30.9687 27.708C31.1129 27.6249 31.2016 27.4704 31.2016 27.3043V26.0742C31.2016 25.2981 30.5529 24.6667 29.7554 24.6667ZM30.2682 27.0257C29.1067 27.6043 27.6964 27.6043 26.5349 27.0257V26.0742C26.5349 25.8128 26.7649 25.6 27.0477 25.6H29.7553C30.0381 25.6 30.2682 25.8128 30.2682 26.0742V27.0257H30.2682Z"
            fill="white" />
        <path
            d="M17.1998 23.7333C14.3694 23.7333 12.0664 26.0363 12.0664 28.8667C12.0664 31.6971 14.3694 34 17.1998 34C20.0301 34 22.3331 31.697 22.3331 28.8666C22.3331 26.0363 20.0301 23.7333 17.1998 23.7333ZM17.1998 33.0666C14.8837 33.0666 12.9998 31.1827 12.9998 28.8666C12.9998 26.5506 14.8837 24.6666 17.1998 24.6666C19.5158 24.6666 21.3998 26.5506 21.3998 28.8666C21.3998 31.1827 19.5158 33.0666 17.1998 33.0666Z"
            fill="white" />
        <path
            d="M17.1987 25.6C16.1692 25.6 15.332 26.4372 15.332 27.4667C15.332 28.4962 16.1692 29.3333 17.1987 29.3333C18.2281 29.3333 19.0653 28.4961 19.0653 27.4667C19.0653 26.4372 18.2282 25.6 17.1987 25.6ZM17.1987 28.4C16.684 28.4 16.2653 27.9815 16.2653 27.4667C16.2653 26.952 16.6839 26.5333 17.1987 26.5333C17.7134 26.5333 18.132 26.9519 18.132 27.4667C18.132 27.9815 17.7134 28.4 17.1987 28.4Z"
            fill="white" />
        <path
            d="M18.5522 30.2667H15.8446C15.0471 30.2667 14.3984 30.8981 14.3984 31.6737V32.9038C14.3984 33.0704 14.4871 33.2244 14.6313 33.3079C15.4134 33.7606 16.301 34 17.1984 34C18.0959 34 18.9834 33.7606 19.7656 33.3079C19.9098 33.2249 19.9984 33.0704 19.9984 32.9043V31.6742C19.9984 30.8981 19.3498 30.2667 18.5522 30.2667ZM19.0651 32.6257C17.9035 33.2043 16.4933 33.2043 15.3317 32.6257V31.6742C15.3317 31.4128 15.5618 31.2 15.8446 31.2H18.5522C18.835 31.2 19.065 31.4128 19.065 31.6742V32.6257H19.0651Z"
            fill="white" />
        <path
            d="M11.1334 12.0667C8.303 12.0667 6 14.3697 6 17.2C6 20.0304 8.303 22.3334 11.1334 22.3334C13.9637 22.3334 16.2667 20.0304 16.2667 17.2C16.2666 14.3697 13.9636 12.0667 11.1334 12.0667ZM11.1334 21.4C8.81728 21.4 6.93335 19.5161 6.93335 17.2C6.93335 14.8839 8.81728 13 11.1334 13C13.4494 13 15.3334 14.8839 15.3334 17.2C15.3334 19.5161 13.4494 21.4 11.1334 21.4Z"
            fill="white" />
        <path
            d="M11.1362 13.9333C10.1067 13.9333 9.26953 14.7706 9.26953 15.8C9.26953 16.8294 10.1067 17.6666 11.1362 17.6666C12.1657 17.6666 13.0028 16.8294 13.0028 15.8C13.0028 14.7706 12.1656 13.9333 11.1362 13.9333ZM11.1362 16.7334C10.6215 16.7334 10.2028 16.3148 10.2028 15.8C10.2028 15.2852 10.6214 14.8666 11.1362 14.8666C11.6509 14.8666 12.0695 15.2852 12.0695 15.8C12.0695 16.3148 11.6509 16.7334 11.1362 16.7334Z"
            fill="white" />
        <path
            d="M12.4858 18.6H9.77824C8.98073 18.6 8.33203 19.2315 8.33203 20.007V21.2372C8.33203 21.4038 8.42068 21.5578 8.56489 21.6413C9.34703 22.094 10.2346 22.3334 11.132 22.3334C12.0295 22.3334 12.917 22.094 13.6992 21.6413C13.8434 21.5582 13.932 21.4038 13.932 21.2377V20.0075C13.932 19.2315 13.2833 18.6 12.4858 18.6ZM12.9987 20.959C11.8372 21.5377 10.4269 21.5377 9.26533 20.959V20.0075C9.26533 19.7462 9.4954 19.5334 9.77819 19.5334H12.4858C12.7686 19.5334 12.9986 19.7462 12.9986 20.0075V20.959H12.9987Z"
            fill="white" />
        <path
            d="M22.3365 6C19.5061 6 17.2031 8.303 17.2031 11.1334C17.2031 13.9637 19.5061 16.2667 22.3365 16.2667C25.1668 16.2667 27.4698 13.9637 27.4698 11.1334C27.4698 8.303 25.1668 6 22.3365 6ZM22.3365 15.3334C20.0204 15.3334 18.1365 13.4494 18.1365 11.1334C18.1365 8.81728 20.0204 6.93335 22.3365 6.93335C24.6525 6.93335 26.5365 8.81728 26.5365 11.1334C26.5365 13.4494 24.6525 15.3334 22.3365 15.3334Z"
            fill="white" />
        <path
            d="M22.3315 7.8667C21.302 7.8667 20.4648 8.70391 20.4648 9.73335C20.4648 10.7628 21.3021 11.6 22.3315 11.6C23.3609 11.6 24.1981 10.7628 24.1981 9.7334C24.1981 8.70396 23.3609 7.8667 22.3315 7.8667ZM22.3315 10.6667C21.8168 10.6667 21.3981 10.2481 21.3981 9.73335C21.3981 9.21863 21.8167 8.8 22.3315 8.8C22.8463 8.8 23.2648 9.21857 23.2648 9.73335C23.2648 10.2481 22.8462 10.6667 22.3315 10.6667Z"
            fill="white" />
        <path
            d="M23.685 12.5334H20.9775C20.18 12.5334 19.5312 13.1648 19.5312 13.9404V15.1705C19.5312 15.3371 19.6199 15.4911 19.7641 15.5747C20.5463 16.0273 21.4338 16.2667 22.3312 16.2667C23.2287 16.2667 24.1163 16.0273 24.8984 15.5747C25.0426 15.4916 25.1313 15.3371 25.1313 15.171V13.9409C25.1313 13.1648 24.4825 12.5334 23.685 12.5334ZM24.1979 14.8924C23.0364 15.471 21.6261 15.471 20.4645 14.8924V13.9409C20.4645 13.6795 20.6946 13.4667 20.9774 13.4667H23.685C23.9678 13.4667 24.1978 13.6795 24.1978 13.9409V14.8924H24.1979Z"
            fill="white" />
        <path
            d="M18.0242 10.8295C17.8567 10.6344 17.5622 10.611 17.3662 10.7786L14.1322 13.546C13.9362 13.7135 13.9133 14.008 14.0808 14.204C14.1732 14.3117 14.3039 14.3673 14.4355 14.3673C14.5428 14.3673 14.6506 14.3304 14.7388 14.2548L17.9728 11.4875C18.1689 11.32 18.1917 11.0255 18.0242 10.8295Z"
            fill="white" />
        <path
            d="M28.308 18.3205L25.508 14.5872C25.3535 14.3804 25.0609 14.3398 24.8546 14.4938C24.6483 14.6483 24.6068 14.9409 24.7613 15.1467L27.5613 18.88C27.6532 19.0023 27.7932 19.0667 27.9351 19.0667C28.0321 19.0667 28.1306 19.0363 28.2146 18.9733C28.4209 18.8189 28.4625 18.5263 28.308 18.3205Z"
            fill="white" />
        <path
            d="M24.478 24.8099C24.3236 24.6036 24.031 24.5621 23.8247 24.7165L21.2179 26.6714C21.0116 26.8259 20.9701 27.1185 21.1245 27.3243C21.2165 27.4465 21.3565 27.5109 21.4983 27.5109C21.5958 27.5109 21.6938 27.4801 21.7779 27.4175L24.3847 25.4627C24.591 25.3083 24.6325 25.0157 24.478 24.8099Z"
            fill="white" />
        <path
            d="M12.5302 28.4H9.26352C9.00595 28.4 8.79688 28.6085 8.79688 28.8666C8.79688 29.1247 9.00595 29.3333 9.26352 29.3333H12.5302C12.7877 29.3333 12.9968 29.1247 12.9968 28.8666C12.9968 28.6085 12.7878 28.4 12.5302 28.4Z"
            fill="white" />
        <path
            d="M11.1323 6C10.1028 6 9.26562 6.83721 9.26562 7.86665C9.26562 8.89614 10.1028 9.7333 11.1323 9.7333C12.1618 9.7333 12.9989 8.89609 12.9989 7.86665C12.999 6.83721 12.1618 6 11.1323 6ZM11.1323 8.8C10.6176 8.8 10.199 8.38142 10.199 7.86665C10.199 7.35193 10.6176 6.9333 11.1323 6.9333C11.647 6.9333 12.0657 7.35187 12.0657 7.86665C12.0656 8.38142 11.647 8.8 11.1323 8.8Z"
            fill="white" />
        <path
            d="M11.1346 8.79999C10.877 8.79999 10.668 9.00857 10.668 9.26664V12.5333C10.668 12.7914 10.877 12.9999 11.1346 12.9999C11.3922 12.9999 11.6013 12.7914 11.6013 12.5333V9.26664C11.6013 9.00857 11.3922 8.79999 11.1346 8.79999Z"
            fill="white" />
    </g>
    <defs>
        <linearGradient id="paint0_linear" x1="-16.9697" y1="55.9596" x2="-9.4448" y2="-8.85892"
            gradientUnits="userSpaceOnUse">
            <stop stop-color="#5D2E8B" />
            <stop offset="1" stop-color="#964BDF" />
        </linearGradient>
        <clipPath id="clip0">
            <rect width="28" height="28" fill="white" transform="translate(6 6)" />
        </clipPath>
    </defs>
</svg>
