<svg width="40" height="40" viewBox="0 0 40 40" fill="none" xmlns="http://www.w3.org/2000/svg">
    <rect width="40" height="40" rx="4" fill="url(#paint0_linear)" />
    <path
        d="M11.0051 9.07697H10.9985C9.98573 9.09179 9.16203 9.92818 9.16203 10.9414V13.6058H6.41212C6.18452 13.6058 6 13.7903 6 14.0179C6 14.2455 6.18452 14.4301 6.41212 14.4301H9.16209V16.5969H6.41212C6.18452 16.5969 6 16.7814 6 17.009C6 17.2366 6.18452 17.4211 6.41212 17.4211H9.16209V19.5879H6.41212C6.18452 19.588 6 19.7725 6 20.0001C6 20.2277 6.18452 20.4122 6.41212 20.4122H9.16209V22.579H6.41212C6.18452 22.579 6 22.7635 6 22.9911C6 23.2187 6.18452 23.4032 6.41212 23.4032H9.16209V25.5701H6.41212C6.18452 25.5701 6 25.7546 6 25.9822C6 26.2098 6.18452 26.3943 6.41212 26.3943H9.16209V27.8036C9.16209 28.0311 9.34671 28.2157 9.57421 28.2157C9.80171 28.2157 9.98634 28.0311 9.98634 27.8036V10.9415C9.98634 10.376 10.4457 9.90953 11.0112 9.90072C11.2387 9.89744 11.4206 9.71057 11.4167 9.48253C11.4134 9.25722 11.2299 9.07697 11.0051 9.07697Z"
        fill="white" />
    <path
        d="M28.4309 29.9284H11.027C10.6022 29.9284 10.2241 29.6746 10.0631 29.2816C9.97684 29.0707 9.73671 28.9701 9.52572 29.0563C9.31469 29.1426 9.21417 29.3833 9.30041 29.5937C9.58834 30.2977 10.2659 30.7526 11.027 30.7526H13.6056V33.5877C13.6056 33.8153 13.7901 33.9999 14.0178 33.9999C14.2454 33.9999 14.4299 33.8153 14.4299 33.5877V30.7526H16.5967V33.5877C16.5967 33.8153 16.7812 33.9999 17.0088 33.9999C17.2364 33.9999 17.421 33.8153 17.421 33.5877V30.7526H19.5877V33.5877C19.5877 33.8153 19.7722 33.9999 19.9999 33.9999C20.2275 33.9999 20.412 33.8153 20.412 33.5877V30.7526H22.5788V33.5877C22.5788 33.8153 22.7633 33.9999 22.9909 33.9999C23.2185 33.9999 23.403 33.8153 23.403 33.5877V30.7526H25.5698V33.5877C25.5698 33.8153 25.7544 33.9999 25.982 33.9999C26.2096 33.9999 26.3941 33.8153 26.3941 33.5877V30.7526H28.4309C28.6584 30.7526 28.843 30.568 28.843 30.3405C28.843 30.1126 28.6584 29.9284 28.4309 29.9284Z"
        fill="white" />
    <path
        d="M25.59 13.0076H14.4109C13.6844 13.0076 13.0938 13.5984 13.0938 14.3248V25.5045C13.0938 26.231 13.6845 26.8216 14.4109 26.8216H25.5901C26.3165 26.8216 26.9072 26.2309 26.9072 25.5045V14.3248C26.9072 13.5983 26.3165 13.0076 25.59 13.0076ZM13.9179 14.3248C13.9179 14.0528 14.1388 13.8319 14.4108 13.8319H22.9358V18.1362C22.1907 18.2972 21.6022 18.8857 21.4412 19.6308H18.4041V17.5174C19.1828 17.3652 19.7719 16.6778 19.7719 15.8552C19.7719 14.9215 19.0119 14.1616 18.0777 14.1616C17.2551 14.1616 16.5678 14.7506 16.4155 15.5287H13.9179V14.3248ZM23.348 18.9164C23.969 18.9164 24.474 19.422 24.474 20.043C24.474 20.6639 23.969 21.1689 23.348 21.1689C22.7226 21.1689 22.2215 20.659 22.2215 20.043C22.2216 19.4258 22.7241 18.9164 23.348 18.9164ZM18.0777 16.725C17.6011 16.725 17.2079 16.3374 17.2079 15.8552C17.2079 15.376 17.598 14.9858 18.0777 14.9858C18.5575 14.9858 18.9476 15.376 18.9476 15.8552C18.9476 16.339 18.5536 16.725 18.0777 16.725ZM16.2979 23.4609C16.0589 23.3268 15.8973 23.0702 15.8973 22.7773C15.8973 22.3448 16.2495 21.9931 16.682 21.9931C17.1145 21.9931 17.4662 22.3448 17.4662 22.7773C17.4661 23.3765 16.818 23.7549 16.2979 23.4609ZM19.6311 25.9974H16.8661V24.3752C17.6667 24.284 18.2904 23.6021 18.2904 22.7773C18.2904 21.8904 17.5689 21.1689 16.682 21.1689C15.7945 21.1689 15.0731 21.8904 15.0731 22.7773C15.0731 23.4367 15.472 24.0054 16.0418 24.2532V25.9974H14.4109C14.1389 25.9974 13.918 25.776 13.918 25.5045V16.353H16.4583C16.4618 16.3587 16.6833 17.199 17.5799 17.4746V20.043C17.5799 20.2705 17.7645 20.4551 17.992 20.4551H19.6311V25.9974ZM26.083 25.5045C26.083 25.776 25.8621 25.9974 25.5901 25.9974H20.4553V24.2151H26.083V25.5045ZM26.083 23.3909H20.4553V20.4551H21.4412C21.6309 21.3332 22.4139 21.9932 23.348 21.9932C24.4234 21.9932 25.2982 21.1183 25.2982 20.043C25.2982 19.1088 24.6383 18.3258 23.7602 18.1362C23.7602 18.1362 23.7601 18.1362 23.7601 18.1362V13.8319H25.59C25.862 13.8319 26.0829 14.0528 26.0829 14.3248V23.3909H26.083Z"
        fill="white" />
    <path
        d="M33.5846 17.4211C33.8122 17.4211 33.9967 17.2366 33.9967 17.009C33.9967 16.7814 33.8122 16.5969 33.5846 16.5969H30.8347V14.43H33.5846C33.8122 14.43 33.9967 14.2455 33.9967 14.0179C33.9967 13.7903 33.8122 13.6058 33.5846 13.6058H30.8347V10.9414C30.8347 9.91327 29.9983 9.07639 28.9696 9.07639H26.391V6.41212C26.391 6.18452 26.2065 6 25.9788 6C25.7512 6 25.5667 6.18452 25.5667 6.41212V9.07634H23.3999V6.41212C23.3999 6.18452 23.2154 6 22.9878 6C22.7602 6 22.5756 6.18452 22.5756 6.41212V9.07634H20.4089V6.41212C20.4089 6.18452 20.2243 6 19.9967 6C19.7691 6 19.5846 6.18452 19.5846 6.41212V9.07634H17.4178V6.41212C17.4178 6.18452 17.2333 6 17.0057 6C16.7781 6 16.5936 6.18452 16.5936 6.41212V9.07634H14.4268V6.41212C14.4268 6.18452 14.2423 6 14.0146 6C13.787 6 13.6025 6.18452 13.6025 6.41212V9.07634H12.6504C12.4224 9.07634 12.2383 9.26096 12.2383 9.48846C12.2383 9.71596 12.4224 9.90059 12.6504 9.90059C14.8093 9.90059 27.2418 9.90059 28.9696 9.90059C29.5439 9.90059 30.0104 10.3677 30.0104 10.9413V28.8877C30.0104 29.1751 29.8961 29.4427 29.6879 29.6411C29.523 29.7982 29.5164 30.0593 29.6736 30.2236C29.7549 30.3087 29.8632 30.3516 29.972 30.3516C30.0742 30.3516 30.1764 30.3137 30.2566 30.2378C30.6292 29.8823 30.8347 29.4026 30.8347 28.8877V26.3942H33.5847C33.8123 26.3942 33.9968 26.2097 33.9968 25.9821C33.9968 25.7545 33.8123 25.57 33.5847 25.57H30.8347V23.4031H33.5847C33.8123 23.4031 33.9968 23.2186 33.9968 22.991C33.9968 22.7634 33.8123 22.5789 33.5847 22.5789H30.8347V20.4121H33.5847C33.8123 20.4121 33.9968 20.2276 33.9968 20C33.9968 19.7724 33.8123 19.5879 33.5847 19.5879H30.8347V17.4211H33.5846Z"
        fill="white" />
    <defs>
        <linearGradient id="paint0_linear" x1="-16.9697" y1="55.9596" x2="-9.4448" y2="-8.85892"
            gradientUnits="userSpaceOnUse">
            <stop stop-color="#5D2E8B" />
            <stop offset="1" stop-color="#964BDF" />
        </linearGradient>
    </defs>
</svg>
