<svg width="40" height="40" viewBox="0 0 40 40" fill="none" xmlns="http://www.w3.org/2000/svg">
    <rect width="40" height="40" rx="4" fill="url(#paint0_linear)" />
    <path d="M27.4375 27.4375H31.8125V28.3125H27.4375V27.4375Z" fill="white" />
    <path d="M29.1875 29.1875H30.0625V30.0625H29.1875V29.1875Z" fill="white" />
    <path d="M30.9375 29.1875H31.8125V30.0625H30.9375V29.1875Z" fill="white" />
    <path d="M27.4375 29.1875H28.3125V30.0625H27.4375V29.1875Z" fill="white" />
    <path d="M8.1875 9.9375H12.5625V10.8125H8.1875V9.9375Z" fill="white" />
    <path d="M11.6875 11.6875H12.5625V12.5625H11.6875V11.6875Z" fill="white" />
    <path d="M8.1875 11.6875H9.0625V12.5625H8.1875V11.6875Z" fill="white" />
    <path d="M9.9375 11.6875H10.8125V12.5625H9.9375V11.6875Z" fill="white" />
    <path
        d="M27.4375 21.6314V18.6875H32.25C32.9736 18.6875 33.5625 18.0986 33.5625 17.375V7.75C33.5625 7.02637 32.9736 6.4375 32.25 6.4375H20.875C20.1514 6.4375 19.5625 7.02637 19.5625 7.75V10.8125H14.3125V8.1875H6.4375V14.3125H14.3125V11.6875H19.5625V12.5625H18.3686L17.9853 13.7586C17.6476 13.8671 17.3208 14.0019 17.0101 14.1607L15.8949 13.5867L13.5876 15.8941L14.1616 17.0092C14.0032 17.3194 13.8684 17.6458 13.7595 17.9844L12.5625 18.3686V21.3125H7.75C7.02637 21.3125 6.4375 21.9014 6.4375 22.625V32.25C6.4375 32.9736 7.02637 33.5625 7.75 33.5625H19.125C19.8486 33.5625 20.4375 32.9736 20.4375 32.25V29.1875H25.6875V31.8125H33.5625V25.6875H25.6875V28.3125H20.4375V27.4375H21.6314L22.0147 26.2414C22.3529 26.1324 22.6797 25.9981 22.9899 25.8393L24.1051 26.4133L26.4124 24.1059L25.8384 22.9907C25.9968 22.6806 26.1316 22.3542 26.2405 22.0156L27.4375 21.6314ZM13.4375 13.4375H7.3125V9.0625H13.4375V13.4375ZM26.5625 26.5625H32.6875V30.9375H26.5625V26.5625ZM23.9375 20C23.9375 22.023 22.4032 23.6934 20.4375 23.9117V22.625C20.4375 21.9014 19.8486 21.3125 19.125 21.3125H16.2909C16.1421 20.8925 16.0625 20.4528 16.0625 20C16.0625 17.977 17.5968 16.3066 19.5625 16.0883V17.375C19.5625 18.0986 20.1514 18.6875 20.875 18.6875H23.7091C23.8579 19.1075 23.9375 19.5472 23.9375 20ZM23.535 17.8125C23.6833 16.7831 24.3435 15.9199 25.25 15.4872V15.625C25.25 16.3486 25.8389 16.9375 26.5625 16.9375C27.2861 16.9375 27.875 16.3486 27.875 15.625V15.4872C28.7815 15.9199 29.4417 16.7831 29.59 17.8125H23.535ZM24.375 11.0772C24.375 10.2074 25.0824 9.5 25.9522 9.5H26.125V10.5421L25.1004 11.0544C24.8278 11.1909 24.6191 11.4119 24.4971 11.6766C24.4192 11.4871 24.375 11.285 24.375 11.0772ZM26.125 15.2225C26.2685 15.2019 26.4137 15.1875 26.5625 15.1875C26.7113 15.1875 26.8565 15.2019 27 15.2225V15.625C27 15.8661 26.804 16.0625 26.5625 16.0625C26.321 16.0625 26.125 15.8661 26.125 15.625V15.2225ZM28.6279 11.6761C28.5059 11.4114 28.2972 11.1905 28.0246 11.054L27 10.5421V9.5H27.1728C28.0426 9.5 28.75 10.2074 28.75 11.0772C28.75 11.285 28.7063 11.4871 28.6279 11.6761ZM26.125 14.3125C25.6424 14.3125 25.25 13.9201 25.25 13.4375V12.2283C25.25 12.0616 25.3428 11.9115 25.4919 11.8371L26.5625 11.3016L27.6331 11.8371C27.7822 11.9115 27.875 12.0616 27.875 12.2283V13.4375C27.875 13.9201 27.4826 14.3125 27 14.3125H26.125ZM20.4375 7.75C20.4375 7.50894 20.6335 7.3125 20.875 7.3125H32.25C32.4915 7.3125 32.6875 7.50894 32.6875 7.75V17.375C32.6875 17.6161 32.4915 17.8125 32.25 17.8125H30.4742C30.3198 16.4239 29.4399 15.2544 28.2237 14.6852C28.5479 14.3672 28.75 13.9262 28.75 13.4375V13.1326L29.2133 12.4378C29.4828 12.0336 29.625 11.5628 29.625 11.0776C29.625 9.72531 28.5247 8.625 27.1728 8.625H25.9526C24.6003 8.625 23.5 9.72531 23.5 11.0772C23.5 11.5628 23.6422 12.0331 23.9117 12.4374L24.375 13.1326V13.4375C24.375 13.9262 24.5771 14.3672 24.9013 14.6852C23.6851 15.2544 22.8052 16.4239 22.6508 17.8125H20.875C20.6335 17.8125 20.4375 17.6161 20.4375 17.375V7.75ZM13.4375 19.0064L14.4683 18.6761L14.5321 18.4499C14.6546 18.0173 14.8244 17.606 15.0361 17.2267L15.1512 17.0219L14.6568 16.0616L16.0621 14.6568L17.0219 15.1508L17.2271 15.0361C17.6077 14.8231 18.0194 14.6533 18.4508 14.5317L18.677 14.4678L19.0064 13.4375H19.5625V15.2098C17.1134 15.4316 15.1875 17.494 15.1875 20C15.1875 20.4493 15.2536 20.8877 15.3739 21.3125H13.4375V19.0064ZM10.8125 28.75V26.5625C10.8125 25.2644 11.7606 24.1864 13 23.9769V24.9796L11.9754 25.4919C11.5283 25.7155 11.25 26.1653 11.25 26.6658V27.875C11.25 28.3637 11.4521 28.8047 11.7763 29.1228C11.5313 29.2374 11.3003 29.3765 11.0859 29.5371C10.9118 29.3113 10.8125 29.0383 10.8125 28.75ZM13 28.75C12.5174 28.75 12.125 28.3576 12.125 27.875V26.6658C12.125 26.4991 12.2178 26.349 12.3669 26.2746L13.4375 25.7391L14.5081 26.2746C14.6573 26.349 14.75 26.4991 14.75 26.6658V27.875C14.75 28.3576 14.3576 28.75 13.875 28.75H13ZM13.4375 29.625C13.7884 29.625 14.1239 29.6871 14.4381 29.7961L14.1253 30.5H12.7498L12.4369 29.7961C12.7511 29.6871 13.0866 29.625 13.4375 29.625ZM13.7363 31.375L13.4375 32.0474L13.1387 31.375H13.7363ZM15.2164 30.1994C15.9921 30.7559 16.5 31.6624 16.5 32.6875H14.1108L15.2164 30.1994ZM16.0625 28.75C16.0625 29.0383 15.9632 29.3113 15.7891 29.5366C15.5747 29.3761 15.3437 29.2374 15.0987 29.1223C15.4229 28.8047 15.625 28.3637 15.625 27.875V26.6658C15.625 26.1653 15.3467 25.7159 14.8996 25.4919L13.875 24.9796V23.9769C15.1144 24.186 16.0625 25.264 16.0625 26.5625V28.75ZM11.6586 30.1994L12.7642 32.6875H10.375C10.375 31.6624 10.8829 30.7559 11.6586 30.1994ZM19.5625 32.25C19.5625 32.4911 19.3665 32.6875 19.125 32.6875H17.375C17.375 31.7149 17.0189 30.8255 16.4322 30.1378C16.7568 29.7493 16.9375 29.2636 16.9375 28.75V26.5625C16.9375 24.6327 15.3673 23.0625 13.4375 23.0625C11.5077 23.0625 9.9375 24.6327 9.9375 26.5625V28.75C9.9375 29.2636 10.1182 29.7493 10.4428 30.1378C9.85612 30.8255 9.5 31.7149 9.5 32.6875H7.75C7.5085 32.6875 7.3125 32.4911 7.3125 32.25V22.625C7.3125 22.3839 7.5085 22.1875 7.75 22.1875H19.125C19.3665 22.1875 19.5625 22.3839 19.5625 22.625V32.25ZM25.5317 21.3234L25.4679 21.5496C25.3454 21.9823 25.1756 22.3936 24.9639 22.7729L24.8488 22.9776L25.3432 23.9379L23.9379 25.3428L22.9776 24.8488L22.7729 24.9634C22.3931 25.1761 21.9814 25.3463 21.5492 25.4679L21.323 25.5317L20.9936 26.5625H20.4375V24.7902C22.8866 24.5684 24.8125 22.506 24.8125 20C24.8125 19.5507 24.7464 19.1123 24.6261 18.6875H26.5625V20.9936L25.5317 21.3234Z"
        fill="white" />
    <path d="M8.1875 23.0625H9.0625V23.9375H8.1875V23.0625Z" fill="white" />
    <path d="M17.8125 23.0625H18.6875V23.9375H17.8125V23.0625Z" fill="white" />
    <path d="M21.3125 8.1875H22.1875V9.0625H21.3125V8.1875Z" fill="white" />
    <path d="M30.9375 8.1875H31.8125V9.0625H30.9375V8.1875Z" fill="white" />
    <defs>
        <linearGradient id="paint0_linear" x1="-16.9697" y1="55.9596" x2="-9.4448" y2="-8.85892"
            gradientUnits="userSpaceOnUse">
            <stop stop-color="#5D2E8B" />
            <stop offset="1" stop-color="#964BDF" />
        </linearGradient>
    </defs>
</svg>
