<svg width="40" height="40" viewBox="0 0 40 40" fill="none" xmlns="http://www.w3.org/2000/svg">
    <rect width="40" height="40" rx="4" fill="url(#paint0_linear)" />
    <path
        d="M27 16.9375C27.2416 16.9375 27.4375 16.7416 27.4375 16.5C27.4375 16.2584 27.2416 16.0625 27 16.0625C26.7584 16.0625 26.5625 16.2584 26.5625 16.5C26.5625 16.7416 26.7584 16.9375 27 16.9375Z"
        fill="white" />
    <path
        d="M27 27.4375C26.2764 27.4375 25.6875 28.0264 25.6875 28.75C25.6875 29.4736 26.2764 30.0625 27 30.0625C27.7236 30.0625 28.3125 29.4736 28.3125 28.75C28.3125 28.0264 27.7236 27.4375 27 27.4375ZM27 29.1875C26.7589 29.1875 26.5625 28.9911 26.5625 28.75C26.5625 28.5089 26.7589 28.3125 27 28.3125C27.2411 28.3125 27.4375 28.5089 27.4375 28.75C27.4375 28.9911 27.2411 29.1875 27 29.1875Z"
        fill="white" />
    <path
        d="M29.1669 16.2983C29.1223 15.8219 28.9289 15.3918 28.6279 15.0532L30.5 13.1811C30.7822 12.8989 30.9375 12.524 30.9375 12.125C30.9375 11.8131 30.8399 11.5173 30.6636 11.2675L31.375 10.5561C31.5404 10.7215 31.76 10.8125 31.9936 10.8125C32.859 10.8125 33.5625 10.109 33.5625 9.24362C33.5625 9.01 33.4715 8.79037 33.3061 8.625L31.375 6.69387C31.2096 6.5285 30.99 6.4375 30.7564 6.4375C29.891 6.4375 29.1875 7.141 29.1875 8.00637C29.1875 8.24 29.2785 8.45963 29.4439 8.625L28.7308 9.33812C28.3401 9.07125 27.8326 9.0135 27.3872 9.15963C27.2362 8.60138 26.7305 8.1875 26.125 8.1875C25.4014 8.1875 24.8125 8.77638 24.8125 9.5C24.8125 10.0416 25.1424 10.5071 25.6114 10.7075L22.0825 14.2364C21.8821 13.7674 21.4166 13.4375 20.875 13.4375C20.8649 13.4375 20.8553 13.4401 20.8452 13.4406C21.8611 12.5664 22.1875 11.2312 22.1875 10.375V9.9375H21.75C19.7498 9.9375 18.5269 10.6257 17.8125 11.4889V10.375C17.8125 8.91244 16.7988 6.4375 13 6.4375H12.5625V6.875C12.5625 8.23694 13.3854 10.8125 16.5 10.8125H16.9375V13.875V14.1139C16.3788 13.4388 15.5073 12.8736 14.1966 12.6588C14.2696 12.4951 14.3125 12.3153 14.3125 12.125C14.3125 11.4014 13.7236 10.8125 13 10.8125C12.2764 10.8125 11.6875 11.4014 11.6875 12.125C11.6875 12.7021 12.0642 13.1877 12.5826 13.3631C12.7169 14.7727 13.6431 16.9375 16.5 16.9375H16.9375V19.5625H15.1875C14.7049 19.5625 14.3125 19.9549 14.3125 20.4375V21.3125C14.3125 21.7951 14.7049 22.1875 15.1875 22.1875V23.0625H12.5625V22.1875C13.0451 22.1875 13.4375 21.7951 13.4375 21.3125V20.4375C13.4375 19.9549 13.0451 19.5625 12.5625 19.5625H8.1875C7.70494 19.5625 7.3125 19.9549 7.3125 20.4375V21.3125C7.3125 21.7951 7.70494 22.1875 8.1875 22.1875V23.0625H7.75C7.02637 23.0625 6.4375 23.6514 6.4375 24.375V33.5625H7.3125V24.375C7.3125 24.1339 7.50894 23.9375 7.75 23.9375H8.1875V29.625C8.1875 30.8312 9.16881 31.8125 10.375 31.8125C11.5812 31.8125 12.5625 30.8312 12.5625 29.625V23.9375H15.1875V29.625C15.1875 30.8312 16.1688 31.8125 17.375 31.8125C17.5264 31.8125 17.6742 31.7967 17.8169 31.7674C17.8164 31.7827 17.8125 31.7972 17.8125 31.8125V32.6875C17.8125 33.1701 18.2049 33.5625 18.6875 33.5625H30.9375C31.4201 33.5625 31.8125 33.1701 31.8125 32.6875C31.8125 32.3196 31.697 31.9788 31.5023 31.6966L32.1992 30.4422C33.0909 28.8366 33.5625 27.0175 33.5625 25.1813C33.5625 22.2877 32.4355 19.5669 30.3893 17.5207L29.1669 16.2983ZM16.5 9.9375C14.1734 9.9375 13.6143 8.18313 13.4799 7.32825C15.7462 7.48181 16.7205 8.72519 16.9047 9.9375H16.5ZM8.1875 20.4375H12.5625L12.5629 21.3125H8.1875V20.4375ZM9.0625 22.1875H11.6875V23.0625H9.0625V22.1875ZM11.6875 29.625C11.6875 30.3486 11.0986 30.9375 10.375 30.9375C9.65138 30.9375 9.0625 30.3486 9.0625 29.625V23.9375H11.6875V29.625ZM27 17.8125C26.2764 17.8125 25.6875 17.2236 25.6875 16.5C25.6875 15.7764 26.2764 15.1875 27 15.1875C27.7236 15.1875 28.3125 15.7764 28.3125 16.5C28.3125 17.2236 27.7236 17.8125 27 17.8125ZM30.7564 7.3125L32.6875 9.24362C32.6875 9.62644 32.3764 9.9375 31.9936 9.9375L30.0625 8.00637C30.0625 7.62356 30.3736 7.3125 30.7564 7.3125ZM30.0625 9.24362L30.7564 9.9375L30.0625 10.6314L29.3686 9.9375L30.0625 9.24362ZM28.3125 10.1186L29.8814 11.6875C29.9964 11.8026 30.0625 11.9623 30.0625 12.125C30.0625 12.2877 29.9964 12.4474 29.8814 12.5625L27.9209 14.5229C27.6401 14.3913 27.3299 14.3125 27 14.3125C25.7938 14.3125 24.8125 15.2938 24.8125 16.5C24.8125 16.8299 24.8912 17.1401 25.0229 17.4209L23.9375 18.5064L21.4936 16.0625L27.4375 10.1186C27.6676 9.8885 28.0824 9.8885 28.3125 10.1186ZM20.6186 16.9375L20.875 16.6811L23.3189 19.125L23.0625 19.3814C22.8324 19.6115 22.4176 19.6115 22.1875 19.3814L20.6186 17.8125C20.5036 17.6974 20.4375 17.5378 20.4375 17.375C20.4375 17.2122 20.5036 17.0526 20.6186 16.9375ZM26.125 9.0625C26.3661 9.0625 26.5625 9.25894 26.5625 9.5C26.5625 9.74106 26.3661 9.9375 26.125 9.9375C25.8839 9.9375 25.6875 9.74106 25.6875 9.5C25.6875 9.25894 25.8839 9.0625 26.125 9.0625ZM21.3125 14.75C21.3125 14.9911 21.1161 15.1875 20.875 15.1875C20.6339 15.1875 20.4375 14.9911 20.4375 14.75C20.4375 14.5089 20.6339 14.3125 20.875 14.3125C21.1161 14.3125 21.3125 14.5089 21.3125 14.75ZM21.2701 10.8282C21.1357 11.684 20.5762 13.4375 18.25 13.4375H17.8457C18.0299 12.2252 19.0038 10.9818 21.2701 10.8282ZM13 11.6875C13.2411 11.6875 13.4375 11.8839 13.4375 12.125C13.4375 12.3661 13.2411 12.5625 13 12.5625C12.7589 12.5625 12.5625 12.3661 12.5625 12.125C12.5625 11.8839 12.7589 11.6875 13 11.6875ZM16.5 16.0625C14.1734 16.0625 13.6143 14.3081 13.4799 13.4532C15.7462 13.6068 16.7205 14.8502 16.9047 16.0625H16.5ZM17.8125 16.9375V16.5V14.3125H18.25C18.8293 14.3125 19.3284 14.2228 19.7585 14.0693C19.6364 14.2683 19.5625 14.4998 19.5625 14.75C19.5625 15.2916 19.8924 15.7571 20.3614 15.9575L20 16.3189C19.7178 16.6011 19.5625 16.976 19.5625 17.375C19.5625 17.774 19.7178 18.1494 20 18.4311L21.5689 20C21.8511 20.2822 22.226 20.4375 22.625 20.4375C23.024 20.4375 23.3994 20.2822 23.6811 20L25.5532 18.1279C25.9399 18.4718 26.4431 18.6875 27 18.6875C27.1321 18.6875 27.2599 18.6709 27.3854 18.6486L27.5635 18.782C29.1284 19.9558 30.0625 21.8239 30.0625 23.78C30.0625 24.8239 29.8013 25.8363 29.3096 26.7454C28.8231 26.1854 28.1379 25.8039 27.364 25.7116C27.1899 25.1909 26.7034 24.8125 26.125 24.8125H19.5625V23.9375H21.3125V23.0625H19.5625V22.1875C20.0451 22.1875 20.4375 21.7951 20.4375 21.3125V20.4375C20.4375 19.9549 20.0451 19.5625 19.5625 19.5625H17.8125V16.9375ZM27 30.9375C25.7938 30.9375 24.8125 29.9562 24.8125 28.75C24.8125 27.5438 25.7938 26.5625 27 26.5625C28.2062 26.5625 29.1875 27.5438 29.1875 28.75C29.1875 29.9562 28.2062 30.9375 27 30.9375ZM24.8606 26.5625H19.5625V25.6875H26.125C26.209 25.6875 26.2829 25.7177 26.3494 25.7588C25.7776 25.8831 25.2649 26.167 24.8606 26.5625ZM19.5625 29.625V27.4375H24.2372C24.0469 27.8361 23.9375 28.2797 23.9375 28.75C23.9375 29.6066 24.2919 30.381 24.8606 30.9375H19.1136C19.3914 30.5709 19.5625 30.1194 19.5625 29.625ZM15.1875 20.4375H19.5625L19.5629 21.3125H15.1875V20.4375ZM16.0625 22.1875H18.6875V23.0625H16.0625V22.1875ZM16.0625 29.625V23.9375H18.6875V29.625C18.6875 30.3486 18.0986 30.9375 17.375 30.9375C16.6514 30.9375 16.0625 30.3486 16.0625 29.625ZM18.6875 32.6875V31.8125H30.0625C30.5451 31.8125 30.9375 32.2049 30.9379 32.6875H18.6875ZM31.4345 30.017L30.8229 31.1182C30.5919 31.0062 30.3359 30.9375 30.0625 30.9375H29.1394C29.7081 30.381 30.0625 29.6066 30.0625 28.75C30.0625 28.3374 29.9794 27.9437 29.8306 27.5841C30.5525 26.4435 30.9375 25.1354 30.9375 23.78C30.9375 21.6402 29.9549 19.594 28.2994 18.2496C28.6034 18.0229 28.8502 17.7237 29.0037 17.3719L29.7707 18.1389C31.6515 20.0201 32.6875 22.5213 32.6875 25.1813C32.6875 26.8692 32.2539 28.5413 31.4345 30.017Z"
        fill="white" />
    <path
        d="M19.125 9.0625C19.8486 9.0625 20.4375 8.47362 20.4375 7.75C20.4375 7.02637 19.8486 6.4375 19.125 6.4375C18.4014 6.4375 17.8125 7.02637 17.8125 7.75C17.8125 8.47362 18.4014 9.0625 19.125 9.0625ZM19.125 7.3125C19.3661 7.3125 19.5625 7.50894 19.5625 7.75C19.5625 7.99106 19.3661 8.1875 19.125 8.1875C18.8839 8.1875 18.6875 7.99106 18.6875 7.75C18.6875 7.50894 18.8839 7.3125 19.125 7.3125Z"
        fill="white" />
    <path
        d="M12.125 18.6875C12.8486 18.6875 13.4375 18.0986 13.4375 17.375C13.4375 16.6514 12.8486 16.0625 12.125 16.0625C11.4014 16.0625 10.8125 16.6514 10.8125 17.375C10.8125 18.0986 11.4014 18.6875 12.125 18.6875ZM12.125 16.9375C12.3661 16.9375 12.5625 17.1339 12.5625 17.375C12.5625 17.6161 12.3661 17.8125 12.125 17.8125C11.8839 17.8125 11.6875 17.6161 11.6875 17.375C11.6875 17.1339 11.8839 16.9375 12.125 16.9375Z"
        fill="white" />
    <path
        d="M8.1875 10.8125C9.15263 10.8125 9.9375 10.0276 9.9375 9.0625C9.9375 8.09737 9.15263 7.3125 8.1875 7.3125C7.22237 7.3125 6.4375 8.09737 6.4375 9.0625C6.4375 10.0276 7.22237 10.8125 8.1875 10.8125ZM8.1875 8.1875C8.67006 8.1875 9.0625 8.57994 9.0625 9.0625C9.0625 9.54506 8.67006 9.9375 8.1875 9.9375C7.70494 9.9375 7.3125 9.54506 7.3125 9.0625C7.3125 8.57994 7.70494 8.1875 8.1875 8.1875Z"
        fill="white" />
    <path
        d="M7.3125 15.1875C7.3125 16.1526 8.09737 16.9375 9.0625 16.9375C10.0276 16.9375 10.8125 16.1526 10.8125 15.1875C10.8125 14.2224 10.0276 13.4375 9.0625 13.4375C8.09737 13.4375 7.3125 14.2224 7.3125 15.1875ZM9.9375 15.1875C9.9375 15.6701 9.54506 16.0625 9.0625 16.0625C8.57994 16.0625 8.1875 15.6701 8.1875 15.1875C8.1875 14.7049 8.57994 14.3125 9.0625 14.3125C9.54506 14.3125 9.9375 14.7049 9.9375 15.1875Z"
        fill="white" />
    <defs>
        <linearGradient id="paint0_linear" x1="-16.9697" y1="55.9596" x2="-9.4448" y2="-8.85892"
            gradientUnits="userSpaceOnUse">
            <stop stop-color="#5D2E8B" />
            <stop offset="1" stop-color="#964BDF" />
        </linearGradient>
    </defs>
</svg>
