<svg width="40" height="40" viewBox="0 0 40 40" fill="none" xmlns="http://www.w3.org/2000/svg">
    <rect width="40" height="40" rx="4" fill="url(#paint0_linear)" />
    <path
        d="M32.1935 14.129C33.1898 14.129 34 13.3189 34 12.3226V11.4194C34 10.4231 33.1898 9.6129 32.1935 9.6129H28.5806V8.70968C29.0788 8.70968 29.4839 8.30459 29.4839 7.80645V6.90323C29.4839 6.40508 29.0788 6 28.5806 6H6.90323C6.40508 6 6 6.40508 6 6.90323V7.80645C6 8.30459 6.40508 8.70968 6.90323 8.70968V17.9988L6 17.1459V34H23.8455L11.413 22.2581H24.0645V29.9355C24.0645 30.6824 24.6725 31.2903 25.4194 31.2903H32.6452C33.392 31.2903 34 30.6824 34 29.9355V18.1935C34 17.4467 33.392 16.8387 32.6452 16.8387H28.5806V14.129H32.1935ZM30.3871 11.4194H20.4516V10.5161H30.3871V11.4194ZM19.5484 12.8337L18.1047 11.871L19.5484 10.9082V12.8337ZM20.4516 12.3226H30.3871V13.2258H20.4516V12.3226ZM33.0968 11.4194V12.3226C33.0968 12.8207 32.6917 13.2258 32.1935 13.2258H31.2903V10.5161H32.1935C32.6917 10.5161 33.0968 10.9212 33.0968 11.4194ZM6.90323 6.90323H28.5806L28.5811 7.80645H6.90323V6.90323ZM6.90323 33.0968V32.1935H7.80645V31.2903H6.90323V30.3871H7.80645V29.4839H6.90323V28.5806H7.80645V27.6774H6.90323V26.7742H7.80645V25.871H6.90323V24.9677H7.80645V24.0645H6.90323V23.1613H7.80645V22.2581H6.90323V19.2412L21.5738 33.0968H6.90323ZM33.0968 18.1935V29.9355C33.0968 30.1847 32.8939 30.3871 32.6452 30.3871H25.4194C25.1706 30.3871 24.9677 30.1847 24.9677 29.9355V18.1935C24.9677 17.9444 25.1706 17.7419 25.4194 17.7419H32.6452C32.8939 17.7419 33.0968 17.9444 33.0968 18.1935ZM27.6774 16.8387H20V17.7419H24.1476C24.0969 17.8837 24.0645 18.0346 24.0645 18.1935V18.6452H20V19.5484H24.0645V21.3548H10.4566L7.80645 18.852V8.70968H27.6774V9.6129H19.8631L16.476 11.871L19.8631 14.129H27.6774V16.8387Z"
        fill="white" />
    <path
        d="M15.4851 11.4194H12.3803L11.5642 17.5373L10.2825 15.9355H8.71094V16.8387H9.84901L12.1803 19.753L13.1706 12.3226H15.4851V11.4194Z"
        fill="white" />
    <path
        d="M18.3247 13.8098L16.386 15.7485L14.4472 13.8098L13.8086 14.4484L15.7474 16.3871L13.8086 18.3259L14.4472 18.9645L16.386 17.0257L18.3247 18.9645L18.9633 18.3259L17.0246 16.3871L18.9633 14.4484L18.3247 13.8098Z"
        fill="white" />
    <path d="M20 15.0323H26.7742V15.9355H20V15.0323Z" fill="white" />
    <path d="M8.71094 23.4323V31.2903H17.0309L8.71094 23.4323ZM9.61416 25.5279L14.7594 30.3871H9.61416V25.5279Z"
        fill="white" />
    <path d="M32.1937 18.6451H25.8711V22.258H32.1937V18.6451ZM31.2904 21.3548H26.7743V19.5484H31.2904V21.3548Z"
        fill="white" />
    <path d="M29.4844 24.0645H32.1941V24.9677H29.4844V24.0645Z" fill="white" />
    <path d="M25.8711 26.7742H28.5808V27.6774H25.8711V26.7742Z" fill="white" />
    <path d="M25.8711 28.5806H28.5808V29.4839H25.8711V28.5806Z" fill="white" />
    <path
        d="M26.7743 25.871H27.6775V24.9678H28.5808V24.0645H27.6775V23.1613H26.7743V24.0645H25.8711V24.9678H26.7743V25.871Z"
        fill="white" />
    <path
        d="M31.4236 26.9065L30.8397 27.4904L30.2558 26.9065L29.6172 27.5451L30.2011 28.129L29.6172 28.7129L30.2558 29.3516L30.8397 28.7676L31.4236 29.3516L32.0623 28.7129L31.4783 28.129L32.0623 27.5451L31.4236 26.9065Z"
        fill="white" />
    <defs>
        <linearGradient id="paint0_linear" x1="-16.9697" y1="55.9596" x2="-9.4448" y2="-8.85892"
            gradientUnits="userSpaceOnUse">
            <stop stop-color="#5D2E8B" />
            <stop offset="1" stop-color="#964BDF" />
        </linearGradient>
    </defs>
</svg>
