<svg width="40" height="40" viewBox="0 0 40 40" fill="none" xmlns="http://www.w3.org/2000/svg">
    <rect width="40" height="40" rx="4" fill="url(#paint0_linear)" />
    <g clip-path="url(#clip0)">
        <path
            d="M17.4989 29.8542C17.0373 30.9685 15.7552 31.4995 14.6409 31.038C13.7995 30.6894 13.2906 29.8731 13.2906 29.0143C13.2906 28.7359 13.3442 28.4528 13.4571 28.1801C13.9187 27.0658 15.2007 26.5347 16.315 26.9963C17.4294 27.4579 17.9605 28.7398 17.4989 29.8542ZM14.4676 28.5986C14.2369 29.1557 14.5023 29.7968 15.0595 30.0276C15.6167 30.2584 16.2577 29.9928 16.4885 29.4357C16.545 29.2993 16.5717 29.1579 16.5717 29.0186C16.5717 28.5893 16.3173 28.181 15.8965 28.0068C15.3394 27.776 14.6984 28.0414 14.4676 28.5986Z"
            fill="white" />
        <path
            d="M21.0118 31.0377C20.4719 30.8141 20.0515 30.3937 19.828 29.8539C19.7149 29.581 19.6615 29.2981 19.6615 29.0197C19.6615 28.1609 20.1704 27.3445 21.0118 26.996C22.1261 26.5345 23.4081 27.0655 23.8697 28.1797C24.0933 28.7196 24.0933 29.3141 23.8697 29.8539C23.6461 30.3937 23.2256 30.8141 22.6859 31.0376C22.1461 31.2613 21.5516 31.2613 21.0118 31.0377ZM22.2673 30.0272C22.5372 29.9154 22.7474 29.7052 22.8592 29.4353C22.9151 29.3004 22.943 29.1586 22.943 29.0168C22.943 28.8751 22.9151 28.7332 22.8592 28.5983C22.6284 28.0412 21.9874 27.7756 21.4303 28.0064C20.8731 28.2372 20.6075 28.8783 20.8384 29.4353C20.9501 29.7052 21.1603 29.9154 21.4303 30.0272C21.7001 30.139 21.9974 30.139 22.2673 30.0272Z"
            fill="white" />
        <path
            d="M24.3318 25.3511C24.2201 25.0812 24.1642 24.7977 24.1642 24.514C24.1642 24.2305 24.2201 23.9469 24.3318 23.677C24.5554 23.1372 24.9758 22.7168 25.5156 22.4932C26.0554 22.2697 26.65 22.2697 27.1898 22.4932C27.7295 22.7168 28.15 23.1372 28.3736 23.6769C28.5972 24.2167 28.5972 24.8113 28.3736 25.3511C28.15 25.8909 27.7296 26.3113 27.1898 26.5349C26.65 26.7584 26.0554 26.7584 25.5157 26.5349C24.9759 26.3114 24.5554 25.891 24.3318 25.3511ZM26.7713 25.5245C27.0412 25.4128 27.2513 25.2026 27.3632 24.9327C27.4191 24.7977 27.447 24.656 27.447 24.5142C27.447 24.3724 27.4191 24.2306 27.3632 24.0956C27.2514 23.8257 27.0412 23.6155 26.7713 23.5037C26.5013 23.3919 26.2041 23.3919 25.9342 23.5037C25.6643 23.6155 25.4541 23.8257 25.3423 24.0956C25.2306 24.3655 25.2306 24.6628 25.3423 24.9327C25.4541 25.2026 25.6644 25.4128 25.9343 25.5246C26.2041 25.6363 26.5013 25.6363 26.7713 25.5245Z"
            fill="white" />
        <path
            d="M8.95173 25.3507C8.8387 25.0778 8.78522 24.795 8.78522 24.5165C8.78522 23.6578 9.29411 22.8413 10.1355 22.4928C10.6753 22.2692 11.2699 22.2692 11.8096 22.4928C12.3494 22.7164 12.7699 23.1368 12.9934 23.6766C13.217 24.2165 13.217 24.811 12.9934 25.3508C12.7698 25.8905 12.3494 26.3109 11.8096 26.5345C10.6953 26.996 9.41326 26.465 8.95173 25.3507ZM11.391 25.524C11.661 25.4123 11.8712 25.202 11.9829 24.9322C12.0388 24.7972 12.0668 24.6554 12.0668 24.5137C12.0668 24.3719 12.0388 24.2301 11.9829 24.0951C11.8712 23.8252 11.661 23.615 11.391 23.5033C11.1211 23.3915 10.8239 23.3915 10.554 23.5033C9.99684 23.734 9.73135 24.375 9.96206 24.9322C10.1929 25.4893 10.8339 25.7548 11.391 25.524Z"
            fill="white" />
        <path
            d="M8.951 18.98C8.83923 18.7101 8.78334 18.4265 8.78334 18.1429C8.78334 17.8594 8.83923 17.5758 8.95106 17.3059C9.1746 16.7661 9.59501 16.3457 10.1348 16.1221C10.6746 15.8986 11.2692 15.8986 11.8089 16.1221C12.3487 16.3457 12.7692 16.7661 12.9927 17.3059C13.2163 17.8457 13.2163 18.4402 12.9927 18.98C12.5312 20.0943 11.2491 20.6253 10.1348 20.1638C9.59501 19.9402 9.1746 19.5198 8.951 18.98ZM11.9823 18.5614C12.0381 18.4265 12.0661 18.2847 12.0661 18.1429C12.0661 18.0011 12.0381 17.8593 11.9823 17.7243C11.8705 17.4544 11.6603 17.2443 11.3904 17.1324C11.1205 17.0207 10.8232 17.0207 10.5533 17.1324C10.2834 17.2442 10.0733 17.4544 9.96144 17.7243C9.84961 17.9943 9.84967 18.2915 9.96144 18.5614C10.0732 18.8313 10.2834 19.0415 10.5533 19.1533C11.1105 19.3841 11.7515 19.1186 11.9823 18.5614Z"
            fill="white" />
        <path
            d="M13.2884 13.6499C13.2884 12.7911 13.7973 11.9747 14.6388 11.6262C15.1785 11.4026 15.7731 11.4026 16.3129 11.6262C16.8527 11.8498 17.2731 12.2702 17.4967 12.81C17.9583 13.9243 17.4272 15.2063 16.3129 15.6678C15.1987 16.1294 13.9166 15.5983 13.4551 14.4841C13.342 14.2112 13.2884 13.9283 13.2884 13.6499ZM15.8943 14.6575C16.4515 14.4267 16.7169 13.7856 16.4862 13.2285C16.2555 12.6714 15.6144 12.4059 15.0573 12.6366C14.5002 12.8674 14.2346 13.5083 14.4654 14.0656C14.6962 14.6227 15.3372 14.8882 15.8943 14.6575Z"
            fill="white" />
        <path
            d="M33.5399 6.45351C34.1491 7.06268 34.1543 8.04239 33.5518 8.68394L25.689 17.0556C26.1275 17.2024 26.5899 17.2805 27.0545 17.2836C27.3117 17.2854 27.5978 17.2287 27.9006 17.1686C28.5702 17.036 29.329 16.8856 29.988 17.3698C30.5823 17.8065 30.9295 18.66 31.0806 20.056C31.3948 22.9573 30.6898 25.8906 29.0959 28.3154C28.93 28.5678 28.5909 28.6379 28.3386 28.4721C28.0862 28.3062 28.0161 27.9671 28.182 27.7147C29.6368 25.5014 30.2801 22.8234 29.9933 20.1737C29.853 18.8782 29.5609 18.4132 29.3405 18.2513C29.0876 18.0655 28.7081 18.1236 28.1132 18.2415C27.7702 18.3095 27.4155 18.3798 27.0472 18.3774C26.3021 18.3724 25.561 18.2131 24.8819 17.9151L21.6957 21.3075C20.9818 23.782 19.5096 23.8363 18.3225 23.8798C17.5229 23.9092 16.8323 23.9345 16.2169 24.5499C16.0966 24.6701 15.9274 24.7276 15.7588 24.7054C15.5902 24.6832 15.4416 24.5839 15.3566 24.4366C15.1056 24.0018 14.9832 23.4435 14.9832 22.8405C14.9832 21.9953 15.2237 21.0625 15.6874 20.2593C16.3972 19.0301 17.4744 18.3229 18.7385 18.2484L22.0784 15.1115C21.7804 14.4323 21.6211 13.6915 21.6161 12.9462C21.6135 12.5766 21.684 12.2232 21.7519 11.8802C21.8697 11.2852 21.9279 10.9057 21.7421 10.6529C21.5802 10.4325 21.1153 10.1403 19.8197 10.0001C16.3408 9.62351 12.9284 10.8248 10.4574 13.2958C5.97999 17.7733 5.97999 25.0585 10.4574 29.536C14.2902 33.3689 20.3543 33.9931 24.8765 31.0202C25.1289 30.8543 25.4679 30.9244 25.6338 31.1768C25.7998 31.4291 25.7297 31.7682 25.4773 31.9341C23.0957 33.4997 20.213 34.2101 17.3601 33.9343C14.4681 33.6547 11.7421 32.3674 9.68398 30.3093C7.30848 27.9338 6.00023 24.7753 6.00023 21.4159C6.00023 18.0564 7.30848 14.898 9.68398 12.5225C12.3903 9.81606 16.1275 8.50037 19.9373 8.91274C21.3333 9.06383 22.1868 9.41101 22.6234 10.0053C23.1076 10.6643 22.9573 11.4232 22.8246 12.0928C22.7646 12.3956 22.7074 12.6817 22.7097 12.9389C22.7128 13.4036 22.7909 13.8659 22.9377 14.3043L31.3095 6.44159C31.951 5.83908 32.9307 5.84428 33.5399 6.45351ZM16.6345 20.8061C16.1492 21.6468 16.0061 22.5834 16.1056 23.266C16.8477 22.8395 17.6266 22.8109 18.2824 22.7868C19.3631 22.7472 20.0981 22.7195 20.5891 21.1883L18.7452 19.3444C17.5938 19.4407 16.9334 20.2886 16.6345 20.8061ZM32.0583 7.23876L19.748 18.8006L21.1927 20.2454L32.7546 7.93516C32.9502 7.72687 32.9554 7.41572 32.7665 7.22684C32.5776 7.03791 32.2665 7.04316 32.0583 7.23876Z"
            fill="white" />
        <path
            d="M26.5372 29.9266C26.5372 29.6246 26.782 29.3798 27.084 29.3798C27.386 29.3798 27.6309 29.6246 27.6309 29.9266L27.6309 29.927C27.6309 30.229 27.386 30.4736 27.084 30.4736C26.782 30.4736 26.5372 30.2286 26.5372 29.9266Z"
            fill="white" />
    </g>
    <defs>
        <linearGradient id="paint0_linear" x1="-16.9697" y1="55.9596" x2="-9.4448" y2="-8.85892"
            gradientUnits="userSpaceOnUse">
            <stop stop-color="#5D2E8B" />
            <stop offset="1" stop-color="#964BDF" />
        </linearGradient>
        <clipPath id="clip0">
            <rect width="28" height="28" fill="white" transform="matrix(-4.37114e-08 -1 -1 4.37114e-08 34 34)" />
        </clipPath>
    </defs>
</svg>
