<svg width="22" height="19" viewBox="0 0 22 19" fill="none" xmlns="http://www.w3.org/2000/svg">
<path d="M7.4438 12.3335C7.44456 12.3335 7.44624 12.3333 7.447 12.3333H18.0703C18.3319 12.3333 18.5618 12.1656 18.6337 11.9224L20.9775 3.98902C21.028 3.81799 20.9926 3.63412 20.8819 3.49215C20.7712 3.35019 20.598 3.26667 20.4141 3.26667H6.09248L5.67362 1.44374C5.61396 1.18446 5.37623 1 5.10157 1H1.58594C1.2623 1 1 1.25367 1 1.56667C1 1.87966 1.2623 2.13333 1.58594 2.13333H4.6316C4.70576 2.45636 6.636 10.8569 6.74708 11.3402C6.12437 11.602 5.68751 12.2024 5.68751 12.9C5.68751 13.8374 6.47608 14.6 7.44532 14.6H18.0703C18.394 14.6 18.6563 14.3463 18.6563 14.0333C18.6563 13.7203 18.394 13.4667 18.0703 13.4667H7.44532C7.12229 13.4667 6.85939 13.2124 6.85939 12.9C6.85939 12.588 7.12138 12.3342 7.4438 12.3335ZM19.6373 4.4L17.6283 11.2H7.9153L6.35279 4.4H19.6373Z" fill="#5D2E8B"/>
<path d="M6.85938 16.3C6.85938 17.2374 7.64796 18 8.6172 18C9.58644 18 10.375 17.2374 10.375 16.3C10.375 15.3626 9.58644 14.6 8.6172 14.6C7.64796 14.6 6.85938 15.3626 6.85938 16.3ZM8.6172 15.7333C8.94023 15.7333 9.20314 15.9876 9.20314 16.3C9.20314 16.6124 8.94023 16.8667 8.6172 16.8667C8.29417 16.8667 8.03126 16.6124 8.03126 16.3C8.03126 15.9876 8.29417 15.7333 8.6172 15.7333Z" fill="#5D2E8B"/>
<path d="M15.1406 16.3C15.1406 17.2374 15.9292 18 16.8985 18C17.8677 18 18.6563 17.2374 18.6563 16.3C18.6563 15.3626 17.8677 14.6 16.8985 14.6C15.9292 14.6 15.1406 15.3626 15.1406 16.3ZM16.8985 15.7333C17.2215 15.7333 17.4844 15.9876 17.4844 16.3C17.4844 16.6124 17.2215 16.8667 16.8985 16.8667C16.5754 16.8667 16.3125 16.6124 16.3125 16.3C16.3125 15.9876 16.5754 15.7333 16.8985 15.7333Z" fill="#5D2E8B"/>
<path d="M7.4438 12.3335C7.44456 12.3335 7.44624 12.3333 7.447 12.3333H18.0703C18.3319 12.3333 18.5618 12.1656 18.6337 11.9224L20.9775 3.98902C21.028 3.81799 20.9926 3.63412 20.8819 3.49215C20.7712 3.35019 20.598 3.26667 20.4141 3.26667H6.09248L5.67362 1.44374C5.61396 1.18446 5.37623 1 5.10157 1H1.58594C1.2623 1 1 1.25367 1 1.56667C1 1.87966 1.2623 2.13333 1.58594 2.13333H4.6316C4.70576 2.45636 6.636 10.8569 6.74708 11.3402C6.12437 11.602 5.68751 12.2024 5.68751 12.9C5.68751 13.8374 6.47608 14.6 7.44532 14.6H18.0703C18.394 14.6 18.6563 14.3463 18.6563 14.0333C18.6563 13.7203 18.394 13.4667 18.0703 13.4667H7.44532C7.12229 13.4667 6.85939 13.2124 6.85939 12.9C6.85939 12.588 7.12138 12.3342 7.4438 12.3335ZM19.6373 4.4L17.6283 11.2H7.9153L6.35279 4.4H19.6373Z" stroke="#5D2E8B" stroke-width="0.3"/>
<path d="M6.85938 16.3C6.85938 17.2374 7.64796 18 8.6172 18C9.58644 18 10.375 17.2374 10.375 16.3C10.375 15.3626 9.58644 14.6 8.6172 14.6C7.64796 14.6 6.85938 15.3626 6.85938 16.3ZM8.6172 15.7333C8.94023 15.7333 9.20314 15.9876 9.20314 16.3C9.20314 16.6124 8.94023 16.8667 8.6172 16.8667C8.29417 16.8667 8.03126 16.6124 8.03126 16.3C8.03126 15.9876 8.29417 15.7333 8.6172 15.7333Z" stroke="#5D2E8B" stroke-width="0.3"/>
<path d="M15.1406 16.3C15.1406 17.2374 15.9292 18 16.8985 18C17.8677 18 18.6563 17.2374 18.6563 16.3C18.6563 15.3626 17.8677 14.6 16.8985 14.6C15.9292 14.6 15.1406 15.3626 15.1406 16.3ZM16.8985 15.7333C17.2215 15.7333 17.4844 15.9876 17.4844 16.3C17.4844 16.6124 17.2215 16.8667 16.8985 16.8667C16.5754 16.8667 16.3125 16.6124 16.3125 16.3C16.3125 15.9876 16.5754 15.7333 16.8985 15.7333Z" stroke="#5D2E8B" stroke-width="0.3"/>
</svg>
